<svg width="30" height="30" viewBox="0 0 30 30" fill="none" xmlns="http://www.w3.org/2000/svg">
<path d="M5 22.5H7.5V27.6013L13.8762 22.5H20C21.3787 22.5 22.5 21.3788 22.5 20V10C22.5 8.62125 21.3787 7.5 20 7.5H5C3.62125 7.5 2.5 8.62125 2.5 10V20C2.5 21.3788 3.62125 22.5 5 22.5Z" fill="url(#paint0_linear_2967_16837)"/>
<path d="M25 2.5H10C8.62125 2.5 7.5 3.62125 7.5 5H22.5C23.8787 5 25 6.12125 25 7.5V17.5C26.3787 17.5 27.5 16.3787 27.5 15V5C27.5 3.62125 26.3787 2.5 25 2.5Z" fill="url(#paint1_linear_2967_16837)"/>
<defs>
<linearGradient id="paint0_linear_2967_16837" x1="13.892" y1="52.0882" x2="-5.4691" y2="-10.6188" gradientUnits="userSpaceOnUse">
<stop offset="0.207846" stop-color="#FF0000"/>
<stop offset="1" stop-color="#EA0000" stop-opacity="0.18"/>
</linearGradient>
<linearGradient id="paint1_linear_2967_16837" x1="18.892" y1="35.7727" x2="7.67834" y2="-12.8978" gradientUnits="userSpaceOnUse">
<stop offset="0.207846" stop-color="#FF0000"/>
<stop offset="1" stop-color="#EA0000" stop-opacity="0.18"/>
</linearGradient>
</defs>
</svg>
