<svg width="17" height="17" viewBox="0 0 17 17" fill="none" xmlns="http://www.w3.org/2000/svg">
<path d="M9.87844 1.48331C9.49393 1.15559 9.00524 0.975586 8.50002 0.975586C7.9948 0.975586 7.50611 1.15559 7.12161 1.48331L6.16677 2.29718C6.05336 2.39393 5.91232 2.45242 5.76373 2.46435L4.51352 2.56351C4.00992 2.60368 3.5371 2.82195 3.17986 3.17919C2.82263 3.53642 2.60435 4.00924 2.56419 4.51285L2.46502 5.76376C2.4529 5.91244 2.39415 6.05349 2.29715 6.16681L1.48398 7.12164C1.15645 7.5061 0.976562 7.99464 0.976562 8.4997C0.976562 9.00476 1.15645 9.49331 1.48398 9.87776L2.29715 10.8333C2.39389 10.9467 2.45239 11.0878 2.46431 11.2363L2.56419 12.4866C2.60435 12.9902 2.82263 13.463 3.17986 13.8202C3.5371 14.1775 4.00992 14.3957 4.51352 14.4359L5.76373 14.5351C5.91265 14.547 6.05397 14.6058 6.16748 14.7029L7.12161 15.5161C7.50611 15.8438 7.9948 16.0238 8.50002 16.0238C9.00524 16.0238 9.49393 15.8438 9.87844 15.5161L10.8333 14.7029C10.9469 14.606 11.0882 14.5475 11.237 14.5358L12.4872 14.4359C12.9908 14.3957 13.4637 14.1775 13.8209 13.8202C14.1781 13.463 14.3964 12.9902 14.4366 12.4866L14.5357 11.2363C14.5475 11.0875 14.606 10.9462 14.7029 10.8326L15.5168 9.87847C15.8445 9.49397 16.0245 9.00527 16.0245 8.50006C16.0245 7.99484 15.8445 7.50615 15.5168 7.12164L14.7029 6.16681C14.606 6.0532 14.5475 5.91189 14.5357 5.76306L14.4366 4.51285C14.3964 4.00924 14.1781 3.53642 13.8209 3.17919C13.4637 2.82195 12.9908 2.60368 12.4872 2.56351L11.2363 2.46435C11.0877 2.45242 10.9467 2.39393 10.8333 2.29718L9.87844 1.48331ZM10.5032 5.4946L11.5055 6.49618L6.49686 11.5055L5.49457 10.5032L10.5032 5.4946ZM7.24769 7.24772C7.14968 7.3492 7.03244 7.43015 6.90281 7.48583C6.77318 7.54152 6.63376 7.57083 6.49268 7.57205C6.3516 7.57328 6.21169 7.54639 6.08111 7.49297C5.95054 7.43955 5.83191 7.36065 5.73214 7.26089C5.63238 7.16113 5.55349 7.0425 5.50007 6.91192C5.44664 6.78135 5.41976 6.64144 5.42099 6.50036C5.42221 6.35928 5.45152 6.21986 5.50721 6.09023C5.56289 5.9606 5.64384 5.84336 5.74532 5.74535C5.9457 5.55181 6.21409 5.44471 6.49268 5.44713C6.77126 5.44955 7.03775 5.5613 7.23475 5.75829C7.43174 5.95529 7.54349 6.22178 7.54591 6.50036C7.54833 6.77894 7.44123 7.04733 7.24769 7.24772ZM9.75236 11.2548C9.64916 11.1572 9.56657 11.0399 9.50947 10.9099C9.45236 10.7799 9.42191 10.6397 9.4199 10.4977C9.41789 10.3557 9.44437 10.2147 9.49777 10.0832C9.55118 9.95156 9.63042 9.83201 9.73082 9.73157C9.83121 9.63112 9.95073 9.55182 10.0823 9.49836C10.2139 9.44489 10.3548 9.41835 10.4968 9.42029C10.6388 9.42223 10.779 9.45262 10.909 9.50966C11.0391 9.5667 11.1564 9.64924 11.254 9.75239C11.4417 9.9538 11.5439 10.2202 11.539 10.4955C11.5342 10.7707 11.4227 11.0334 11.228 11.228C11.0333 11.4227 10.7707 11.5342 10.4954 11.5391C10.2202 11.5439 9.95377 11.4417 9.75236 11.2541" fill="#2E7D31"/>
</svg>
