<svg width="15" height="16" viewBox="0 0 15 16" fill="none" xmlns="http://www.w3.org/2000/svg">
<path d="M5.6367 0.5C4.60674 0.5 3.76404 1.34375 3.76404 2.375V4.25H0.187266C0.0749064 4.25 0.0187266 4.325 0.0187266 4.41875V8.9375C0.0187266 9.4625 0.430712 9.875 0.955056 9.875H14.0637C14.588 9.875 15 9.4625 15 8.9375V4.41875C15 4.30625 14.9251 4.25 14.8315 4.25H11.2547V2.375C11.2547 1.34375 10.412 0.5 9.38202 0.5L5.6367 0.5ZM5.6367 2.375H9.38202V4.25H5.6367V2.375ZM0.0187266 11.5812V15.3312C0.0187266 15.425 0.093633 15.5 0.187266 15.5H14.8127C14.9064 15.5 14.9813 15.425 14.9813 15.3312V11.5812C14.6816 11.6937 14.382 11.75 14.0449 11.75H0.93633C0.599251 11.75 0.299625 11.675 0 11.5812H0.0187266Z" fill="#333333"/>
</svg>
