<svg width="60" height="60" viewBox="0 0 60 60" fill="none" xmlns="http://www.w3.org/2000/svg">
<path d="M56.4 30.625C56.4 28.675 56.225 26.8 55.9 25H30V35.6375H44.8C44.1625 39.075 42.225 41.9875 39.3125 43.9375V50.8375H48.2C53.4 46.05 56.4 39 56.4 30.625Z" fill="#4285F4"/>
<path d="M29.9998 57.5001C37.4248 57.5001 43.6498 55.0376 48.1998 50.8376L39.3123 43.9376C36.8498 45.5876 33.6998 46.5626 29.9998 46.5626C22.8373 46.5626 16.7748 41.7251 14.6123 35.2251H5.4248V42.3501C9.9498 51.3376 19.2498 57.5001 29.9998 57.5001Z" fill="#34A853"/>
<path d="M14.6125 35.2249C14.0625 33.5749 13.75 31.8124 13.75 29.9999C13.75 28.1874 14.0625 26.4249 14.6125 24.7749V17.6499H5.425C3.5 21.482 2.4983 25.7114 2.5 29.9999C2.5 34.4374 3.5625 38.6374 5.425 42.3499L14.6125 35.2249Z" fill="#FBBC05"/>
<path d="M29.9998 13.4375C34.0373 13.4375 37.6623 14.825 40.5123 17.55L48.3998 9.6625C43.6373 5.225 37.4123 2.5 29.9998 2.5C19.2498 2.5 9.9498 8.6625 5.4248 17.65L14.6123 24.775C16.7748 18.275 22.8373 13.4375 29.9998 13.4375Z" fill="#EA4335"/>
</svg>
