<svg width="15" height="16" viewBox="0 0 15 16" fill="none" xmlns="http://www.w3.org/2000/svg">
<path d="M10.225 9.25C10.275 8.8375 10.3125 8.425 10.3125 8C10.3125 7.575 10.275 7.1625 10.225 6.75H12.3375C12.4375 7.15 12.5 7.56875 12.5 8C12.5 8.43125 12.4375 8.85 12.3375 9.25M9.11875 12.725C9.49375 12.0312 9.78125 11.2812 9.98125 10.5H11.825C11.2195 11.5427 10.2588 12.3325 9.11875 12.725ZM8.9625 9.25H6.0375C5.975 8.8375 5.9375 8.425 5.9375 8C5.9375 7.575 5.975 7.15625 6.0375 6.75H8.9625C9.01875 7.15625 9.0625 7.575 9.0625 8C9.0625 8.425 9.01875 8.8375 8.9625 9.25ZM7.5 12.975C6.98125 12.225 6.5625 11.3938 6.30625 10.5H8.69375C8.4375 11.3938 8.01875 12.225 7.5 12.975ZM5 5.5H3.175C3.77428 4.45451 4.73425 3.66343 5.875 3.275C5.5 3.96875 5.21875 4.71875 5 5.5ZM3.175 10.5H5C5.21875 11.2812 5.5 12.0312 5.875 12.725C4.73664 12.3323 3.77803 11.5423 3.175 10.5ZM2.6625 9.25C2.5625 8.85 2.5 8.43125 2.5 8C2.5 7.56875 2.5625 7.15 2.6625 6.75H4.775C4.725 7.1625 4.6875 7.575 4.6875 8C4.6875 8.425 4.725 8.8375 4.775 9.25M7.5 3.01875C8.01875 3.76875 8.4375 4.60625 8.69375 5.5H6.30625C6.5625 4.60625 6.98125 3.76875 7.5 3.01875ZM11.825 5.5H9.98125C9.78564 4.72591 9.49598 3.97868 9.11875 3.275C10.2688 3.66875 11.225 4.4625 11.825 5.5ZM7.5 1.75C4.04375 1.75 1.25 4.5625 1.25 8C1.25 9.6576 1.90848 11.2473 3.08058 12.4194C3.66095 12.9998 4.34994 13.4602 5.10823 13.7742C5.86651 14.0883 6.67924 14.25 7.5 14.25C9.1576 14.25 10.7473 13.5915 11.9194 12.4194C13.0915 11.2473 13.75 9.6576 13.75 8C13.75 7.17924 13.5883 6.36651 13.2742 5.60823C12.9602 4.84994 12.4998 4.16095 11.9194 3.58058C11.3391 3.00022 10.6501 2.53984 9.89177 2.22575C9.13349 1.91166 8.32076 1.75 7.5 1.75Z" fill="#13827C"/>
</svg>
